<?xml version="1.0" encoding="UTF-8"?>
<svg xmlns="http://www.w3.org/2000/svg" xmlns:xlink="http://www.w3.org/1999/xlink" width="1920" height="1080" viewBox="0 0 1920 1080">
<path id="SceneExample_0_26" fill-rule="nonzero" fill="rgb(20.392157%, 20.392157%, 20.392157%)" fill-opacity="1" d="M 1186.023438 469.578125 C 1198.398438 469.578125 1204.40625 479.121094 1204.40625 498.917969 C 1204.40625 527.429688 1204.40625 555.945312 1204.40625 584.457031 C 1204.40625 597.535156 1199.808594 603.191406 1187.792969 604.605469 C 1187.792969 607.433594 1187.792969 610.261719 1187.792969 613.089844 C 1215.480469 613.089844 1243.171875 613.089844 1270.859375 613.089844 C 1270.859375 610.261719 1270.859375 607.433594 1270.859375 604.605469 C 1257.074219 603.546875 1253.539062 599.304688 1253.539062 584.457031 C 1253.539062 554.882812 1253.539062 525.308594 1253.539062 495.734375 C 1253.539062 465.335938 1234.804688 445.894531 1205.820312 445.894531 C 1184.609375 445.894531 1168.351562 455.792969 1155.273438 476.648438 C 1155.273438 467.8125 1155.273438 458.972656 1155.273438 450.136719 C 1132.769531 450.136719 1110.261719 450.136719 1087.757812 450.136719 C 1087.757812 452.964844 1087.757812 455.792969 1087.757812 458.621094 C 1103.3125 461.09375 1106.492188 464.628906 1106.492188 479.476562 C 1106.492188 514.117188 1106.492188 548.757812 1106.492188 583.398438 C 1106.492188 598.242188 1103.664062 601.425781 1087.757812 604.605469 C 1087.757812 607.433594 1087.757812 610.261719 1087.757812 613.089844 C 1116.15625 613.089844 1144.550781 613.089844 1172.945312 613.089844 C 1172.945312 610.261719 1172.945312 607.433594 1172.945312 604.605469 C 1159.867188 602.839844 1155.625 597.535156 1155.625 584.457031 C 1155.625 553 1155.625 521.539062 1155.625 490.082031 C 1155.625 486.191406 1171.179688 469.578125 1186.023438 469.578125 Z M 1186.023438 469.578125 "/>
</svg>
