<?xml version="1.0" encoding="UTF-8"?>
<svg xmlns="http://www.w3.org/2000/svg" xmlns:xlink="http://www.w3.org/1999/xlink" width="1920" height="1080" viewBox="0 0 1920 1080">
<path id="SceneExample_95" fill-rule="nonzero" fill="rgb(0%, 0%, 0%)" fill-opacity="1" d="M 914.511719 104.53125 C 915.519531 104.53125 916.800781 104.53125 916.800781 103.1875 C 916.800781 101.84375 915.519531 101.84375 914.578125 101.84375 C 901.152344 101.84375 887.726562 101.84375 874.296875 101.84375 C 873.355469 101.84375 872.078125 101.84375 872.078125 103.1875 C 872.078125 104.53125 873.355469 104.53125 874.367188 104.53125 C 887.746094 104.53125 901.128906 104.53125 914.511719 104.53125 Z M 914.578125 117.578125 C 915.519531 117.578125 916.800781 117.578125 916.800781 116.234375 C 916.800781 114.890625 915.519531 114.890625 914.511719 114.890625 C 901.128906 114.890625 887.746094 114.890625 874.367188 114.890625 C 873.355469 114.890625 872.078125 114.890625 872.078125 116.234375 C 872.078125 117.578125 873.355469 117.578125 874.296875 117.578125 C 887.726562 117.578125 901.152344 117.578125 914.578125 117.578125 Z M 914.578125 117.578125 "/>
</svg>
