<?xml version="1.0" encoding="UTF-8"?>
<svg xmlns="http://www.w3.org/2000/svg" xmlns:xlink="http://www.w3.org/1999/xlink" width="1920" height="1080" viewBox="0 0 1920 1080">
<path id="SceneExample_97" fill-rule="nonzero" fill="rgb(0%, 0%, 0%)" fill-opacity="1" d="M 992.171875 90.1875 C 991.636719 90.1875 991.105469 90.1875 990.570312 90.1875 C 990.429688 91.226562 989.957031 94.003906 989.347656 94.472656 C 988.96875 94.753906 985.34375 94.753906 984.6875 94.753906 C 981.800781 94.753906 978.910156 94.753906 976.023438 94.753906 C 980.96875 90.378906 982.613281 89.058594 985.441406 86.847656 C 988.921875 84.070312 992.171875 81.152344 992.171875 76.679688 C 992.171875 70.984375 987.179688 67.5 981.15625 67.5 C 975.320312 67.5 971.363281 71.59375 971.363281 75.925781 C 971.363281 78.328125 973.386719 78.5625 973.859375 78.5625 C 974.988281 78.5625 976.355469 77.761719 976.355469 76.066406 C 976.355469 75.21875 976.023438 73.574219 973.578125 73.574219 C 975.035156 70.230469 978.238281 69.195312 980.449219 69.195312 C 985.15625 69.195312 987.605469 72.867188 987.605469 76.679688 C 987.605469 80.773438 984.6875 84.023438 983.179688 85.71875 C 979.398438 89.453125 975.617188 93.1875 971.835938 96.921875 C 971.363281 97.34375 971.363281 97.4375 971.363281 98.757812 C 977.828125 98.757812 984.292969 98.757812 990.757812 98.757812 C 991.230469 95.902344 991.699219 93.046875 992.171875 90.1875 Z M 992.171875 90.1875 "/>
</svg>
