<?xml version="1.0" encoding="UTF-8"?>
<svg xmlns="http://www.w3.org/2000/svg" xmlns:xlink="http://www.w3.org/1999/xlink" width="1920" height="1080" viewBox="0 0 1920 1080">
<path id="SceneExample_86" fill-rule="nonzero" fill="rgb(0%, 0%, 0%)" fill-opacity="0.00435235" d="M 726.984375 80.617188 C 725.917969 80.617188 724.855469 80.617188 723.789062 80.617188 C 723.507812 82.683594 722.570312 88.226562 721.347656 89.167969 C 720.59375 89.730469 713.363281 89.730469 712.046875 89.730469 C 706.285156 89.730469 700.523438 89.730469 694.761719 89.730469 C 704.625 80.996094 707.914062 78.363281 713.550781 73.949219 C 720.5 68.40625 726.984375 62.582031 726.984375 53.65625 C 726.984375 42.289062 717.027344 35.339844 705 35.339844 C 693.351562 35.339844 685.460938 43.511719 685.460938 52.152344 C 685.460938 56.945312 689.5 57.414062 690.441406 57.414062 C 692.695312 57.414062 695.417969 55.816406 695.417969 52.4375 C 695.417969 50.746094 694.761719 47.457031 689.875 47.457031 C 692.789062 40.785156 699.175781 38.71875 703.59375 38.71875 C 712.988281 38.71875 717.871094 46.046875 717.871094 53.65625 C 717.871094 61.828125 712.046875 68.3125 709.039062 71.695312 C 701.492188 79.148438 693.949219 86.597656 686.402344 94.050781 C 685.460938 94.898438 685.460938 95.085938 685.460938 97.714844 C 698.363281 97.714844 711.265625 97.714844 724.164062 97.714844 C 725.105469 92.015625 726.042969 86.316406 726.984375 80.617188 Z M 726.984375 80.617188 "/>
</svg>
