<?xml version="1.0" encoding="UTF-8"?>
<svg xmlns="http://www.w3.org/2000/svg" xmlns:xlink="http://www.w3.org/1999/xlink" width="1920" height="1080" viewBox="0 0 1920 1080">
<path id="SceneExample_0_2_0_0" fill-rule="nonzero" fill="rgb(20.392157%, 20.392157%, 20.392157%)" fill-opacity="1" d="M 786.671875 514.234375 C 756.703125 442.839844 726.730469 371.445312 696.761719 300.050781 C 692.996094 290.636719 692.523438 290.636719 679.816406 290.636719 C 650.628906 290.636719 621.445312 290.636719 592.257812 290.636719 C 583.785156 290.636719 576.722656 290.636719 576.722656 299.109375 C 576.722656 307.113281 585.195312 307.113281 587.550781 307.113281 C 593.199219 307.113281 605.910156 308.054688 616.265625 311.820312 C 616.265625 395.609375 616.265625 479.402344 616.265625 563.191406 C 616.265625 573.078125 616.265625 593.789062 584.253906 596.613281 C 575.3125 597.554688 575.3125 604.144531 575.3125 604.617188 C 575.3125 613.089844 582.84375 613.089844 591.316406 613.089844 C 615.636719 613.089844 639.960938 613.089844 664.28125 613.089844 C 672.753906 613.089844 679.816406 613.089844 679.816406 604.617188 C 679.816406 600.378906 676.046875 597.085938 672.28125 596.613281 C 636.035156 593.789062 636.035156 574.019531 636.035156 563.191406 C 636.035156 485.050781 636.035156 406.90625 636.035156 328.765625 C 636.191406 328.609375 636.351562 328.453125 636.507812 328.296875 C 674.792969 419.933594 713.078125 511.566406 751.367188 603.203125 C 755.132812 611.679688 758.425781 613.089844 761.25 613.089844 C 766.902344 613.089844 768.3125 609.324219 770.667969 603.675781 C 809.109375 511.882812 847.554688 420.089844 885.996094 328.296875 C 886.152344 328.453125 886.308594 328.609375 886.46875 328.765625 C 886.46875 406.90625 886.46875 485.050781 886.46875 563.191406 C 886.46875 573.078125 886.46875 593.789062 854.457031 596.613281 C 845.511719 597.554688 845.511719 604.144531 845.511719 604.617188 C 845.511719 613.089844 853.046875 613.089844 861.519531 613.089844 C 903.414062 613.089844 945.308594 613.089844 987.203125 613.089844 C 995.675781 613.089844 1002.738281 613.089844 1002.738281 604.617188 C 1002.738281 600.378906 998.972656 597.085938 995.207031 596.613281 C 958.960938 593.789062 958.960938 574.019531 958.960938 563.191406 C 958.960938 488.972656 958.960938 414.753906 958.960938 340.535156 C 958.960938 330.648438 958.960938 309.9375 990.96875 307.113281 C 995.675781 306.640625 999.914062 304.289062 999.914062 299.109375 C 999.914062 290.636719 992.851562 290.636719 984.378906 290.636719 C 954.097656 290.636719 923.8125 290.636719 893.527344 290.636719 C 881.289062 290.636719 880.347656 290.636719 876.109375 300.523438 C 846.296875 371.761719 816.484375 442.996094 786.671875 514.234375 Z M 772.550781 522.707031 C 776.316406 530.710938 776.785156 531.183594 782.433594 533.066406 C 775.53125 549.699219 768.625 566.332031 761.722656 582.964844 C 761.410156 582.964844 761.09375 582.964844 760.78125 582.964844 C 725.003906 497.601562 689.230469 412.242188 653.453125 326.882812 C 651.101562 320.761719 647.332031 312.761719 640.742188 307.113281 C 654.394531 307.113281 668.046875 307.113281 681.699219 307.113281 C 711.980469 378.976562 742.265625 450.84375 772.550781 522.707031 Z M 630.386719 596.613281 C 627.71875 596.613281 625.050781 596.613281 622.386719 596.613281 C 623.328125 595.203125 624.269531 593.789062 625.210938 592.847656 C 625.679688 592.378906 625.679688 591.90625 626.152344 591.4375 C 627.5625 593.164062 628.976562 594.886719 630.386719 596.613281 Z M 902.941406 307.113281 C 919.574219 307.113281 936.207031 307.113281 952.839844 307.113281 C 942.484375 318.878906 942.484375 331.121094 942.484375 339.59375 C 942.484375 414.441406 942.484375 489.285156 942.484375 564.132812 C 942.484375 572.605469 942.484375 584.847656 953.3125 596.613281 C 933.070312 596.613281 912.828125 596.613281 892.585938 596.613281 C 902.941406 584.847656 902.941406 572.605469 902.941406 564.132812 C 902.941406 478.460938 902.941406 392.785156 902.941406 307.113281 Z M 902.941406 307.113281 "/>
</svg>
