<?xml version="1.0" encoding="UTF-8"?>
<svg xmlns="http://www.w3.org/2000/svg" xmlns:xlink="http://www.w3.org/1999/xlink" width="1920" height="1080" viewBox="0 0 1920 1080">
<path id="SceneExample_0_32" fill-rule="nonzero" fill="rgb(20.392157%, 20.392157%, 20.392157%)" fill-opacity="1" d="M 1266.203125 450.136719 C 1243.578125 450.136719 1220.957031 450.136719 1198.335938 450.136719 C 1198.335938 452.964844 1198.335938 455.792969 1198.335938 458.621094 C 1213.886719 461.800781 1217.070312 464.984375 1217.070312 479.476562 C 1217.070312 514.117188 1217.070312 548.757812 1217.070312 583.398438 C 1217.070312 597.890625 1214.59375 600.71875 1198.335938 604.605469 C 1198.335938 607.433594 1198.335938 610.261719 1198.335938 613.089844 C 1226.730469 613.089844 1255.125 613.089844 1283.523438 613.089844 C 1283.523438 610.261719 1283.523438 607.433594 1283.523438 604.605469 C 1271.148438 602.839844 1266.203125 597.890625 1266.203125 584.457031 C 1266.203125 539.683594 1266.203125 494.910156 1266.203125 450.136719 Z M 1241.457031 368.839844 C 1226.257812 368.839844 1213.886719 381.210938 1213.886719 396.054688 C 1213.886719 411.960938 1225.550781 423.625 1241.105469 423.625 C 1256.65625 423.625 1268.675781 411.960938 1268.675781 396.410156 C 1268.675781 381.210938 1256.65625 368.839844 1241.457031 368.839844 Z M 1241.457031 368.839844 "/>
</svg>
