<?xml version="1.0" encoding="UTF-8"?>
<svg xmlns="http://www.w3.org/2000/svg" xmlns:xlink="http://www.w3.org/1999/xlink" width="1920" height="1080" viewBox="0 0 1920 1080">
<path id="SceneExample_96" fill-rule="nonzero" fill="rgb(0%, 0%, 0%)" fill-opacity="1" d="M 965.925781 100.96875 C 964.851562 100.96875 963.910156 100.96875 962.96875 101.910156 C 961.890625 102.917969 961.757812 104.0625 961.757812 104.53125 C 961.757812 106.148438 962.96875 106.886719 964.246094 106.886719 C 966.195312 106.886719 968.011719 105.273438 968.011719 102.582031 C 968.011719 99.289062 964.851562 96.800781 960.078125 96.800781 C 951 96.800781 942.054688 106.414062 942.054688 115.898438 C 942.054688 121.949219 945.953125 127.261719 952.949219 127.261719 C 962.566406 127.261719 968.214844 120.132812 968.214844 119.328125 C 968.214844 118.925781 967.808594 118.453125 967.40625 118.453125 C 967.070312 118.453125 966.9375 118.585938 966.53125 119.125 C 961.21875 125.78125 953.890625 125.78125 953.082031 125.78125 C 948.847656 125.78125 947.03125 122.488281 947.03125 118.453125 C 947.03125 115.695312 948.375 109.171875 950.660156 105.003906 C 952.746094 101.171875 956.445312 98.277344 960.144531 98.277344 C 962.429688 98.277344 964.984375 99.152344 965.925781 100.96875 Z M 965.925781 100.96875 "/>
</svg>
