<?xml version="1.0" encoding="UTF-8"?>
<svg xmlns="http://www.w3.org/2000/svg" xmlns:xlink="http://www.w3.org/1999/xlink" width="1920" height="1080" viewBox="0 0 1920 1080">
<path id="SceneExample_94" fill-rule="nonzero" fill="rgb(0%, 0%, 0%)" fill-opacity="1" d="M 843.238281 90.1875 C 842.703125 90.1875 842.171875 90.1875 841.636719 90.1875 C 841.496094 91.226562 841.023438 94.003906 840.414062 94.472656 C 840.035156 94.753906 836.410156 94.753906 835.753906 94.753906 C 832.867188 94.753906 829.980469 94.753906 827.089844 94.753906 C 832.035156 90.378906 833.683594 89.058594 836.507812 86.847656 C 839.988281 84.070312 843.238281 81.152344 843.238281 76.679688 C 843.238281 70.984375 838.246094 67.5 832.222656 67.5 C 826.386719 67.5 822.429688 71.59375 822.429688 75.925781 C 822.429688 78.328125 824.457031 78.5625 824.925781 78.5625 C 826.054688 78.5625 827.421875 77.761719 827.421875 76.066406 C 827.421875 75.21875 827.089844 73.574219 824.644531 73.574219 C 826.101562 70.230469 829.304688 69.195312 831.515625 69.195312 C 836.222656 69.195312 838.671875 72.867188 838.671875 76.679688 C 838.671875 80.773438 835.753906 84.023438 834.246094 85.71875 C 830.464844 89.453125 826.683594 93.1875 822.902344 96.921875 C 822.429688 97.34375 822.429688 97.4375 822.429688 98.757812 C 828.894531 98.757812 835.359375 98.757812 841.824219 98.757812 C 842.296875 95.902344 842.765625 93.046875 843.238281 90.1875 Z M 843.238281 90.1875 "/>
</svg>
