<?xml version="1.0" encoding="UTF-8"?>
<svg xmlns="http://www.w3.org/2000/svg" xmlns:xlink="http://www.w3.org/1999/xlink" width="1920" height="1080" viewBox="0 0 1920 1080">
<path id="SceneExample_88" fill-rule="nonzero" fill="rgb(0%, 0%, 0%)" fill-opacity="0.00435235" d="M 935.847656 61.464844 C 935.847656 61.332031 935.847656 59.992188 934.101562 59.992188 C 931.015625 59.992188 921.21875 61.0625 917.730469 61.332031 C 916.65625 61.464844 915.179688 61.601562 915.179688 64.015625 C 915.179688 65.625 916.386719 65.625 918.402344 65.625 C 924.84375 65.625 925.109375 66.566406 925.109375 67.910156 C 925.109375 68.847656 923.902344 73.410156 923.230469 76.230469 C 919.5625 90.8125 915.894531 105.394531 912.226562 119.980469 C 910.617188 126.6875 910.082031 128.835938 910.082031 133.535156 C 910.082031 146.28125 917.191406 154.601562 927.125 154.601562 C 942.960938 154.601562 959.46875 134.605469 959.46875 115.28125 C 959.46875 103.070312 952.355469 93.808594 941.617188 93.808594 C 935.445312 93.808594 929.941406 97.703125 925.917969 101.863281 C 929.226562 88.398438 932.535156 74.933594 935.847656 61.464844 Z M 923.230469 112.195312 C 924.039062 109.242188 924.039062 108.972656 925.246094 107.5 C 931.820312 98.773438 937.859375 96.761719 941.351562 96.761719 C 946.179688 96.761719 949.804688 100.789062 949.804688 109.378906 C 949.804688 117.296875 945.375 132.726562 942.960938 137.828125 C 938.53125 146.820312 932.359375 151.652344 927.125 151.652344 C 922.5625 151.652344 918.132812 148.027344 918.132812 138.097656 C 918.132812 135.546875 918.132812 132.996094 920.28125 124.542969 C 921.265625 120.425781 922.25 116.3125 923.230469 112.195312 Z M 923.230469 112.195312 "/>
</svg>
