<?xml version="1.0" encoding="UTF-8"?>
<svg xmlns="http://www.w3.org/2000/svg" xmlns:xlink="http://www.w3.org/1999/xlink" width="1920" height="1080" viewBox="0 0 1920 1080">
<path id="SceneExample_100" fill-rule="nonzero" fill="rgb(0%, 0%, 0%)" fill-opacity="1" d="M 1133.390625 90.1875 C 1132.859375 90.1875 1132.324219 90.1875 1131.789062 90.1875 C 1131.648438 91.226562 1131.179688 94.003906 1130.566406 94.472656 C 1130.191406 94.753906 1126.566406 94.753906 1125.90625 94.753906 C 1123.019531 94.753906 1120.132812 94.753906 1117.246094 94.753906 C 1122.1875 90.378906 1123.835938 89.058594 1126.660156 86.847656 C 1130.144531 84.070312 1133.390625 81.152344 1133.390625 76.679688 C 1133.390625 70.984375 1128.402344 67.5 1122.375 67.5 C 1116.539062 67.5 1112.585938 71.59375 1112.585938 75.925781 C 1112.585938 78.328125 1114.609375 78.5625 1115.078125 78.5625 C 1116.210938 78.5625 1117.574219 77.761719 1117.574219 76.066406 C 1117.574219 75.21875 1117.246094 73.574219 1114.796875 73.574219 C 1116.257812 70.230469 1119.457031 69.195312 1121.667969 69.195312 C 1126.378906 69.195312 1128.824219 72.867188 1128.824219 76.679688 C 1128.824219 80.773438 1125.90625 84.023438 1124.398438 85.71875 C 1120.617188 89.453125 1116.835938 93.1875 1113.054688 96.921875 C 1112.585938 97.34375 1112.585938 97.4375 1112.585938 98.757812 C 1119.050781 98.757812 1125.515625 98.757812 1131.980469 98.757812 C 1132.449219 95.902344 1132.921875 93.046875 1133.390625 90.1875 Z M 1133.390625 90.1875 "/>
</svg>
