<?xml version="1.0" encoding="UTF-8"?>
<svg xmlns="http://www.w3.org/2000/svg" xmlns:xlink="http://www.w3.org/1999/xlink" width="1920" height="1080" viewBox="0 0 1920 1080">
<path id="SceneExample_0_66" fill-rule="nonzero" fill="rgb(20.392157%, 20.392157%, 20.392157%)" fill-opacity="1" d="M 1085.757812 469.578125 C 1099.542969 469.578125 1104.847656 477.707031 1104.847656 498.917969 C 1104.847656 527.429688 1104.847656 555.945312 1104.847656 584.457031 C 1104.847656 598.949219 1100.957031 603.546875 1087.878906 604.605469 C 1087.878906 607.433594 1087.878906 610.261719 1087.878906 613.089844 C 1115.449219 613.089844 1143.023438 613.089844 1170.59375 613.089844 C 1170.59375 610.261719 1170.59375 607.433594 1170.59375 604.605469 C 1158.222656 603.191406 1153.980469 597.890625 1153.980469 584.457031 C 1153.980469 553 1153.980469 521.539062 1153.980469 490.082031 C 1153.980469 486.191406 1170.238281 469.578125 1184.023438 469.578125 C 1197.457031 469.578125 1202.757812 478.0625 1202.757812 498.917969 C 1202.757812 527.429688 1202.757812 555.945312 1202.757812 584.457031 C 1202.757812 599.304688 1198.871094 603.546875 1185.4375 604.605469 C 1185.4375 607.433594 1185.4375 610.261719 1185.4375 613.089844 C 1213.480469 613.089844 1241.523438 613.089844 1269.566406 613.089844 C 1269.566406 610.261719 1269.566406 607.433594 1269.566406 604.605469 C 1255.78125 603.898438 1251.890625 599.65625 1251.890625 584.457031 C 1251.890625 554.882812 1251.890625 525.308594 1251.890625 495.734375 C 1251.890625 465.335938 1233.160156 445.894531 1204.171875 445.894531 C 1184.023438 445.894531 1170.59375 454.027344 1152.210938 476.648438 C 1141.609375 454.378906 1129.234375 445.894531 1106.96875 445.894531 C 1084.699219 445.894531 1068.4375 455.441406 1055.007812 476.648438 C 1055.007812 467.8125 1055.007812 458.972656 1055.007812 450.136719 C 1032.738281 450.136719 1010.46875 450.136719 988.199219 450.136719 C 988.199219 452.964844 988.199219 455.792969 988.199219 458.621094 C 1003.753906 460.742188 1006.933594 464.984375 1006.933594 479.476562 C 1006.933594 514.117188 1006.933594 548.757812 1006.933594 583.398438 C 1006.933594 597.890625 1003.753906 601.777344 988.199219 604.605469 C 988.199219 607.433594 988.199219 610.261719 988.199219 613.089844 C 1016.242188 613.089844 1044.285156 613.089844 1072.328125 613.089844 C 1072.328125 610.261719 1072.328125 607.433594 1072.328125 604.605469 C 1059.953125 602.839844 1056.066406 597.890625 1056.066406 584.457031 C 1056.066406 553 1056.066406 521.539062 1056.066406 490.082031 C 1056.066406 485.839844 1071.621094 469.578125 1085.757812 469.578125 Z M 1085.757812 469.578125 "/>
</svg>
