<?xml version="1.0" encoding="UTF-8"?>
<svg xmlns="http://www.w3.org/2000/svg" xmlns:xlink="http://www.w3.org/1999/xlink" width="1920" height="1080" viewBox="0 0 1920 1080">
<path id="SceneExample_90" fill-rule="nonzero" fill="rgb(0%, 0%, 0%)" fill-opacity="0.00435235" d="M 1151.046875 109.242188 C 1153.0625 109.242188 1155.613281 109.242188 1155.613281 106.558594 C 1155.613281 103.875 1153.0625 103.875 1151.183594 103.875 C 1124.386719 103.875 1097.589844 103.875 1070.796875 103.875 C 1068.917969 103.875 1066.367188 103.875 1066.367188 106.558594 C 1066.367188 109.242188 1068.917969 109.242188 1070.929688 109.242188 C 1097.636719 109.242188 1124.34375 109.242188 1151.046875 109.242188 Z M 1151.183594 135.277344 C 1153.0625 135.277344 1155.613281 135.277344 1155.613281 132.59375 C 1155.613281 129.910156 1153.0625 129.910156 1151.046875 129.910156 C 1124.34375 129.910156 1097.636719 129.910156 1070.929688 129.910156 C 1068.917969 129.910156 1066.367188 129.910156 1066.367188 132.59375 C 1066.367188 135.277344 1068.917969 135.277344 1070.796875 135.277344 C 1097.589844 135.277344 1124.386719 135.277344 1151.183594 135.277344 Z M 1151.183594 135.277344 "/>
</svg>
