<?xml version="1.0" encoding="UTF-8"?>
<svg xmlns="http://www.w3.org/2000/svg" xmlns:xlink="http://www.w3.org/1999/xlink" width="1920" height="1080" viewBox="0 0 1920 1080">
<path id="SceneExample_87" fill-rule="nonzero" fill="rgb(0%, 0%, 0%)" fill-opacity="0.00435235" d="M 824.460938 122.261719 C 836.941406 122.261719 849.421875 122.261719 861.902344 122.261719 C 863.78125 122.261719 866.332031 122.261719 866.332031 119.578125 C 866.332031 116.890625 863.78125 116.890625 861.902344 116.890625 C 849.421875 116.890625 836.941406 116.890625 824.460938 116.890625 C 824.460938 104.367188 824.460938 91.839844 824.460938 79.316406 C 824.460938 77.4375 824.460938 74.886719 821.773438 74.886719 C 819.089844 74.886719 819.089844 77.4375 819.089844 79.316406 C 819.089844 91.839844 819.089844 104.367188 819.089844 116.890625 C 806.566406 116.890625 794.039062 116.890625 781.515625 116.890625 C 779.636719 116.890625 777.085938 116.890625 777.085938 119.578125 C 777.085938 122.261719 779.636719 122.261719 781.515625 122.261719 C 794.039062 122.261719 806.566406 122.261719 819.089844 122.261719 C 819.089844 134.785156 819.089844 147.3125 819.089844 159.835938 C 819.089844 161.714844 819.089844 164.265625 821.773438 164.265625 C 824.460938 164.265625 824.460938 161.714844 824.460938 159.835938 C 824.460938 147.3125 824.460938 134.785156 824.460938 122.261719 Z M 824.460938 122.261719 "/>
</svg>
