<?xml version="1.0" encoding="UTF-8"?>
<svg xmlns="http://www.w3.org/2000/svg" xmlns:xlink="http://www.w3.org/1999/xlink" width="1920" height="1080" viewBox="0 0 1920 1080">
<path id="SceneExample_89" fill-rule="nonzero" fill="rgb(0%, 0%, 0%)" fill-opacity="0.00435235" d="M 1008.808594 80.617188 C 1007.746094 80.617188 1006.679688 80.617188 1005.613281 80.617188 C 1005.332031 82.683594 1004.394531 88.226562 1003.171875 89.167969 C 1002.421875 89.730469 995.1875 89.730469 993.871094 89.730469 C 988.109375 89.730469 982.347656 89.730469 976.585938 89.730469 C 986.449219 80.996094 989.738281 78.363281 995.375 73.949219 C 1002.328125 68.40625 1008.808594 62.582031 1008.808594 53.65625 C 1008.808594 42.289062 998.851562 35.339844 986.828125 35.339844 C 975.179688 35.339844 967.285156 43.511719 967.285156 52.152344 C 967.285156 56.945312 971.328125 57.414062 972.265625 57.414062 C 974.519531 57.414062 977.246094 55.816406 977.246094 52.4375 C 977.246094 50.746094 976.585938 47.457031 971.703125 47.457031 C 974.613281 40.785156 981.003906 38.71875 985.417969 38.71875 C 994.8125 38.71875 999.695312 46.046875 999.695312 53.65625 C 999.695312 61.828125 993.871094 68.3125 990.867188 71.695312 C 983.320312 79.148438 975.773438 86.597656 968.226562 94.050781 C 967.285156 94.898438 967.285156 95.085938 967.285156 97.714844 C 980.1875 97.714844 993.089844 97.714844 1005.992188 97.714844 C 1006.929688 92.015625 1007.871094 86.316406 1008.808594 80.617188 Z M 1008.808594 80.617188 "/>
</svg>
