<?xml version="1.0" encoding="UTF-8"?>
<svg xmlns="http://www.w3.org/2000/svg" xmlns:xlink="http://www.w3.org/1999/xlink" width="1920" height="1080" viewBox="0 0 1920 1080">
<path id="SceneExample_85" fill-rule="nonzero" fill="rgb(0%, 0%, 0%)" fill-opacity="0.00435235" d="M 658.664062 102.398438 C 656.246094 97.433594 652.355469 93.808594 646.316406 93.808594 C 630.613281 93.808594 613.972656 113.539062 613.972656 133.132812 C 613.972656 145.746094 621.355469 154.601562 631.820312 154.601562 C 634.503906 154.601562 641.214844 154.066406 649.269531 144.539062 C 650.339844 150.175781 655.039062 154.601562 661.480469 154.601562 C 666.175781 154.601562 669.265625 151.515625 671.410156 147.222656 C 673.691406 142.390625 675.4375 134.203125 675.4375 133.9375 C 675.4375 132.59375 674.230469 132.59375 673.828125 132.59375 C 672.484375 132.59375 672.351562 133.132812 671.949219 135.011719 C 669.667969 143.734375 667.25 151.652344 661.75 151.652344 C 658.125 151.652344 657.722656 148.160156 657.722656 145.476562 C 657.722656 142.523438 657.992188 141.453125 659.46875 135.546875 C 660.945312 129.910156 661.210938 128.566406 662.421875 123.46875 C 664.03125 117.207031 665.640625 110.941406 667.25 104.679688 C 668.191406 100.921875 668.191406 100.652344 668.191406 100.117188 C 668.191406 97.835938 666.582031 96.492188 664.296875 96.492188 C 661.078125 96.492188 659.066406 99.445312 658.664062 102.398438 Z M 649.9375 137.15625 C 649.269531 139.574219 649.269531 139.839844 647.253906 142.121094 C 641.351562 149.503906 635.847656 151.652344 632.089844 151.652344 C 625.378906 151.652344 623.5 144.269531 623.5 139.035156 C 623.5 132.324219 627.796875 115.820312 630.882812 109.644531 C 635.042969 101.726562 641.082031 96.761719 646.449219 96.761719 C 655.171875 96.761719 657.050781 107.765625 657.050781 108.570312 C 657.050781 109.378906 656.785156 110.183594 656.648438 110.851562 C 654.414062 119.621094 652.175781 128.390625 649.9375 137.15625 Z M 649.9375 137.15625 "/>
</svg>
