<?xml version="1.0" encoding="UTF-8"?>
<svg xmlns="http://www.w3.org/2000/svg" xmlns:xlink="http://www.w3.org/1999/xlink" width="1920" height="1080" viewBox="0 0 1920 1080">
<path id="SceneExample_91" fill-rule="nonzero" fill="rgb(0%, 0%, 0%)" fill-opacity="0.00435235" d="M 1253.652344 102.128906 C 1251.507812 102.128906 1249.628906 102.128906 1247.75 104.007812 C 1245.601562 106.023438 1245.332031 108.304688 1245.332031 109.242188 C 1245.332031 112.464844 1247.75 113.941406 1250.296875 113.941406 C 1254.191406 113.941406 1257.8125 110.71875 1257.8125 105.351562 C 1257.8125 98.773438 1251.507812 93.808594 1241.976562 93.808594 C 1223.859375 93.808594 1206.011719 113 1206.011719 131.921875 C 1206.011719 144 1213.796875 154.601562 1227.753906 154.601562 C 1246.945312 154.601562 1258.214844 140.378906 1258.214844 138.765625 C 1258.214844 137.960938 1257.410156 137.023438 1256.605469 137.023438 C 1255.933594 137.023438 1255.667969 137.292969 1254.863281 138.363281 C 1244.257812 151.652344 1229.632812 151.652344 1228.019531 151.652344 C 1219.566406 151.652344 1215.941406 145.074219 1215.941406 137.023438 C 1215.941406 131.519531 1218.625 118.503906 1223.191406 110.183594 C 1227.351562 102.53125 1234.730469 96.761719 1242.113281 96.761719 C 1246.675781 96.761719 1251.773438 98.507812 1253.652344 102.128906 Z M 1253.652344 102.128906 "/>
</svg>
