<?xml version="1.0" encoding="UTF-8"?>
<svg xmlns="http://www.w3.org/2000/svg" xmlns:xlink="http://www.w3.org/1999/xlink" width="1920" height="1080" viewBox="0 0 1920 1080">
<path id="SceneExample_92" fill-rule="nonzero" fill="rgb(0%, 0%, 0%)" fill-opacity="0.00435235" d="M 1306.027344 80.617188 C 1304.960938 80.617188 1303.898438 80.617188 1302.832031 80.617188 C 1302.550781 82.683594 1301.613281 88.226562 1300.390625 89.167969 C 1299.640625 89.730469 1292.40625 89.730469 1291.089844 89.730469 C 1285.328125 89.730469 1279.566406 89.730469 1273.804688 89.730469 C 1283.667969 80.996094 1286.957031 78.363281 1292.59375 73.949219 C 1299.546875 68.40625 1306.027344 62.582031 1306.027344 53.65625 C 1306.027344 42.289062 1296.070312 35.339844 1284.042969 35.339844 C 1272.394531 35.339844 1264.503906 43.511719 1264.503906 52.152344 C 1264.503906 56.945312 1268.542969 57.414062 1269.484375 57.414062 C 1271.738281 57.414062 1274.460938 55.816406 1274.460938 52.4375 C 1274.460938 50.746094 1273.804688 47.457031 1268.921875 47.457031 C 1271.832031 40.785156 1278.21875 38.71875 1282.636719 38.71875 C 1292.03125 38.71875 1296.914062 46.046875 1296.914062 53.65625 C 1296.914062 61.828125 1291.089844 68.3125 1288.085938 71.695312 C 1280.539062 79.148438 1272.992188 86.597656 1265.445312 94.050781 C 1264.503906 94.898438 1264.503906 95.085938 1264.503906 97.714844 C 1277.40625 97.714844 1290.308594 97.714844 1303.210938 97.714844 C 1304.148438 92.015625 1305.085938 86.316406 1306.027344 80.617188 Z M 1306.027344 80.617188 "/>
</svg>
