<?xml version="1.0" encoding="UTF-8"?>
<svg xmlns="http://www.w3.org/2000/svg" xmlns:xlink="http://www.w3.org/1999/xlink" width="1920" height="1080" viewBox="0 0 1920 1080">
<path id="SceneExample_0_0_4" fill-rule="nonzero" fill="rgb(50.588235%, 69.803922%, 60.392157%)" fill-opacity="1" stroke-width="0.04" stroke-linecap="butt" stroke-linejoin="miter" stroke="rgb(50.588235%, 69.803922%, 60.392157%)" stroke-opacity="1" stroke-miterlimit="10" d="M 0.983507 -0.847135 C 0.983507 -0.58533 0.875752 -0.325145 0.690625 -0.140017 C 0.505498 0.045081 0.245312 0.152865 -0.0164931 0.152865 C -0.27827 0.152865 -0.538455 0.045081 -0.723582 -0.140017 C -0.908709 -0.325145 -1.016493 -0.58533 -1.016493 -0.847135 C -1.016493 -1.108941 -0.908709 -1.369126 -0.723582 -1.554253 C -0.538455 -1.739352 -0.27827 -1.847135 -0.0164931 -1.847135 C 0.245312 -1.847135 0.505498 -1.739352 0.690625 -1.554253 C 0.875752 -1.369126 0.983507 -1.108941 0.983507 -0.847135 Z M 0.983507 -0.847135 " transform="matrix(135, 0, 0, -135, 960, 540)"/>
</svg>
