<?xml version="1.0" encoding="UTF-8"?>
<svg xmlns="http://www.w3.org/2000/svg" xmlns:xlink="http://www.w3.org/1999/xlink" width="1920" height="1080" viewBox="0 0 1920 1080">
<path id="SceneExample_0_37" fill-rule="nonzero" fill="rgb(20.392157%, 20.392157%, 20.392157%)" fill-opacity="1" d="M 1300.6875 469.578125 C 1314.472656 469.578125 1319.773438 477.707031 1319.773438 498.917969 C 1319.773438 527.429688 1319.773438 555.945312 1319.773438 584.457031 C 1319.773438 598.949219 1315.886719 603.546875 1302.808594 604.605469 C 1302.808594 607.433594 1302.808594 610.261719 1302.808594 613.089844 C 1330.378906 613.089844 1357.949219 613.089844 1385.519531 613.089844 C 1385.519531 610.261719 1385.519531 607.433594 1385.519531 604.605469 C 1373.148438 603.191406 1368.90625 597.890625 1368.90625 584.457031 C 1368.90625 553 1368.90625 521.539062 1368.90625 490.082031 C 1368.90625 486.191406 1385.167969 469.578125 1398.953125 469.578125 C 1412.386719 469.578125 1417.6875 478.0625 1417.6875 498.917969 C 1417.6875 527.429688 1417.6875 555.945312 1417.6875 584.457031 C 1417.6875 599.304688 1413.800781 603.546875 1400.367188 604.605469 C 1400.367188 607.433594 1400.367188 610.261719 1400.367188 613.089844 C 1428.410156 613.089844 1456.453125 613.089844 1484.496094 613.089844 C 1484.496094 610.261719 1484.496094 607.433594 1484.496094 604.605469 C 1470.707031 603.898438 1466.820312 599.65625 1466.820312 584.457031 C 1466.820312 554.882812 1466.820312 525.308594 1466.820312 495.734375 C 1466.820312 465.335938 1448.085938 445.894531 1419.101562 445.894531 C 1398.953125 445.894531 1385.519531 454.027344 1367.140625 476.648438 C 1356.535156 454.378906 1344.164062 445.894531 1321.894531 445.894531 C 1299.625 445.894531 1283.367188 455.441406 1269.933594 476.648438 C 1269.933594 467.8125 1269.933594 458.972656 1269.933594 450.136719 C 1247.664062 450.136719 1225.394531 450.136719 1203.128906 450.136719 C 1203.128906 452.964844 1203.128906 455.792969 1203.128906 458.621094 C 1218.679688 460.742188 1221.863281 464.984375 1221.863281 479.476562 C 1221.863281 514.117188 1221.863281 548.757812 1221.863281 583.398438 C 1221.863281 597.890625 1218.679688 601.777344 1203.128906 604.605469 C 1203.128906 607.433594 1203.128906 610.261719 1203.128906 613.089844 C 1231.167969 613.089844 1259.210938 613.089844 1287.253906 613.089844 C 1287.253906 610.261719 1287.253906 607.433594 1287.253906 604.605469 C 1274.882812 602.839844 1270.996094 597.890625 1270.996094 584.457031 C 1270.996094 553 1270.996094 521.539062 1270.996094 490.082031 C 1270.996094 485.839844 1286.546875 469.578125 1300.6875 469.578125 Z M 1300.6875 469.578125 "/>
</svg>
