<?xml version="1.0" encoding="UTF-8"?>
<svg xmlns="http://www.w3.org/2000/svg" xmlns:xlink="http://www.w3.org/1999/xlink" width="1920" height="1080" viewBox="0 0 1920 1080">
<path id="SceneExample_99" fill-rule="nonzero" fill="rgb(0%, 0%, 0%)" fill-opacity="1" d="M 1096.832031 80.59375 C 1096.832031 80.523438 1096.832031 79.851562 1095.957031 79.851562 C 1094.410156 79.851562 1089.5 80.390625 1087.753906 80.523438 C 1087.214844 80.59375 1086.472656 80.660156 1086.472656 81.871094 C 1086.472656 82.675781 1087.078125 82.675781 1088.089844 82.675781 C 1091.316406 82.675781 1091.449219 83.148438 1091.449219 83.820312 C 1091.449219 84.292969 1090.84375 86.578125 1090.507812 87.988281 C 1088.671875 95.296875 1086.832031 102.605469 1084.996094 109.914062 C 1084.1875 113.273438 1083.917969 114.351562 1083.917969 116.703125 C 1083.917969 123.09375 1087.484375 127.261719 1092.460938 127.261719 C 1100.394531 127.261719 1108.667969 117.242188 1108.667969 107.558594 C 1108.667969 101.4375 1105.101562 96.800781 1099.722656 96.800781 C 1096.628906 96.800781 1093.871094 98.75 1091.855469 100.835938 C 1093.511719 94.085938 1095.171875 87.339844 1096.832031 80.59375 Z M 1090.507812 106.011719 C 1090.914062 104.53125 1090.914062 104.398438 1091.519531 103.660156 C 1094.8125 99.289062 1097.839844 98.277344 1099.585938 98.277344 C 1102.007812 98.277344 1103.824219 100.296875 1103.824219 104.601562 C 1103.824219 108.566406 1101.605469 116.300781 1100.394531 118.855469 C 1098.175781 123.363281 1095.082031 125.78125 1092.460938 125.78125 C 1090.171875 125.78125 1087.953125 123.96875 1087.953125 118.992188 C 1087.953125 117.714844 1087.953125 116.4375 1089.03125 112.199219 C 1089.523438 110.136719 1090.015625 108.074219 1090.507812 106.011719 Z M 1090.507812 106.011719 "/>
</svg>
