<?xml version="1.0" encoding="UTF-8"?>
<svg xmlns="http://www.w3.org/2000/svg" xmlns:xlink="http://www.w3.org/1999/xlink" width="1920" height="1080" viewBox="0 0 1920 1080">
<path id="SceneExample_93" fill-rule="nonzero" fill="rgb(0%, 0%, 0%)" fill-opacity="1" d="M 809.003906 101.101562 C 807.792969 98.613281 805.84375 96.800781 802.816406 96.800781 C 794.949219 96.800781 786.609375 106.683594 786.609375 116.503906 C 786.609375 122.824219 790.308594 127.261719 795.554688 127.261719 C 796.898438 127.261719 800.261719 126.992188 804.296875 122.21875 C 804.832031 125.042969 807.1875 127.261719 810.414062 127.261719 C 812.769531 127.261719 814.316406 125.714844 815.390625 123.5625 C 816.535156 121.144531 817.410156 117.039062 817.410156 116.90625 C 817.410156 116.234375 816.804688 116.234375 816.601562 116.234375 C 815.929688 116.234375 815.863281 116.503906 815.660156 117.445312 C 814.515625 121.816406 813.304688 125.78125 810.550781 125.78125 C 808.734375 125.78125 808.53125 124.035156 808.53125 122.691406 C 808.53125 121.210938 808.667969 120.671875 809.40625 117.714844 C 810.144531 114.890625 810.28125 114.214844 810.886719 111.660156 C 811.691406 108.523438 812.5 105.382812 813.304688 102.246094 C 813.777344 100.363281 813.777344 100.230469 813.777344 99.960938 C 813.777344 98.816406 812.96875 98.144531 811.828125 98.144531 C 810.214844 98.144531 809.203125 99.625 809.003906 101.101562 Z M 804.632812 118.519531 C 804.296875 119.730469 804.296875 119.867188 803.285156 121.007812 C 800.328125 124.707031 797.570312 125.78125 795.6875 125.78125 C 792.324219 125.78125 791.382812 122.085938 791.382812 119.460938 C 791.382812 116.097656 793.535156 107.828125 795.082031 104.734375 C 797.167969 100.765625 800.191406 98.277344 802.882812 98.277344 C 807.253906 98.277344 808.195312 103.792969 808.195312 104.195312 C 808.195312 104.601562 808.0625 105.003906 807.992188 105.339844 C 806.871094 109.734375 805.753906 114.125 804.632812 118.519531 Z M 804.632812 118.519531 "/>
</svg>
