<?xml version="1.0" encoding="UTF-8"?>
<svg xmlns="http://www.w3.org/2000/svg" xmlns:xlink="http://www.w3.org/1999/xlink" width="1920" height="1080" viewBox="0 0 1920 1080">
<path id="SceneExample_0_3" fill-rule="nonzero" fill="rgb(20.392157%, 20.392157%, 20.392157%)" fill-opacity="1" d="M 1053.960938 465.335938 C 1053.960938 457.914062 1063.859375 452.257812 1076.230469 452.257812 C 1096.734375 452.257812 1105.921875 461.800781 1105.921875 483.363281 C 1105.921875 491.964844 1105.921875 500.566406 1105.921875 509.167969 C 1064.921875 521.539062 1010.839844 535.679688 1010.839844 575.621094 C 1010.839844 597.183594 1027.453125 613.089844 1050.074219 613.089844 C 1070.222656 613.089844 1086.484375 606.019531 1105.921875 588.347656 C 1109.8125 606.375 1117.589844 613.089844 1134.910156 613.089844 C 1150.109375 613.089844 1161.066406 607.433594 1174.496094 592.941406 C 1172.730469 590.46875 1170.964844 587.992188 1169.195312 585.519531 C 1168.019531 586.695312 1166.839844 587.875 1165.660156 589.054688 C 1164.601562 590.113281 1163.539062 590.46875 1161.773438 590.46875 C 1156.824219 590.46875 1154.351562 587.285156 1154.351562 581.628906 C 1154.351562 550.878906 1154.351562 520.125 1154.351562 489.375 C 1154.351562 459.679688 1127.484375 440.945312 1084.363281 440.945312 C 1044.417969 440.945312 1017.554688 458.972656 1017.554688 485.484375 C 1017.554688 499.976562 1026.039062 508.816406 1040.53125 508.816406 C 1054.667969 508.816406 1064.566406 500.332031 1064.566406 488.3125 C 1064.566406 477.707031 1053.960938 470.285156 1053.960938 465.335938 Z M 1105.570312 572.792969 C 1096.027344 583.75 1088.957031 587.992188 1080.472656 587.992188 C 1069.867188 587.992188 1062.445312 578.449219 1062.445312 564.308594 C 1062.445312 543.808594 1077.292969 528.960938 1105.570312 521.539062 C 1105.570312 538.625 1105.570312 555.710938 1105.570312 572.792969 Z M 1105.570312 572.792969 "/>
</svg>
